# 3ds Max Wavefront OBJ Exporter v0.97b - (c)2007 guruware
# File Created: 29.01.2019 20:52:41

mtllib box1.mtl

#
# object Non_subD
#

v  67.0412 0.5271 20.5742
v  66.8306 0.5271 21.0826
v  67.1131 0.5271 20.0285
v  67.0412 0.5271 19.4829
v  66.4955 0.5271 21.5192
v  66.8306 0.5271 18.9744
v  66.0589 0.5271 21.8543
v  66.4955 0.5271 18.5377
v  65.5505 0.5271 22.0649
v  66.0589 0.5271 18.2027
v  65.0048 0.5271 22.1368
v  65.5505 0.5271 17.9921
v  64.4591 0.5271 22.0649
v  65.0048 0.5271 17.9202
v  63.9507 0.5271 21.8543
v  64.4591 0.5271 17.9921
v  63.5140 0.5271 21.5192
v  63.9507 0.5271 18.2027
v  63.1790 0.5271 21.0826
v  63.5140 0.5271 18.5377
v  62.9684 0.5271 20.5742
v  63.1790 0.5271 18.9744
v  62.8965 0.5271 20.0285
v  62.9684 0.5271 19.4829
v  67.0412 4.9193 19.4829
v  67.1131 4.9193 20.0285
v  66.8306 4.9193 18.9744
v  66.4955 4.9193 18.5377
v  66.0589 4.9193 18.2027
v  65.5505 4.9193 17.9921
v  65.0048 4.9193 17.9202
v  64.4591 4.9193 17.9921
v  63.9507 4.9193 18.2027
v  63.5140 4.9193 18.5377
v  63.1790 4.9193 18.9744
v  62.9684 4.9193 19.4829
v  62.8965 4.9193 20.0285
v  62.9684 4.9193 20.5742
v  63.1790 4.9193 21.0826
v  63.5140 4.9193 21.5192
v  63.9507 4.9193 21.8543
v  64.4591 4.9193 22.0649
v  65.0048 4.9193 22.1368
v  65.5505 4.9193 22.0649
v  66.0589 4.9193 21.8543
v  66.4955 4.9193 21.5192
v  66.8306 4.9193 21.0826
v  67.0412 4.9193 20.5742
# 48 vertices

vn 0.7092 -0.6789 0.1901
vn 0.6359 -0.6789 0.3671
vn 0.7343 -0.6789 -0.0000
vn 0.7092 -0.6789 -0.1901
vn 0.5192 -0.6789 0.5192
vn 0.6359 -0.6789 -0.3671
vn 0.3671 -0.6789 0.6359
vn 0.5192 -0.6789 -0.5192
vn 0.1901 -0.6789 0.7092
vn 0.3671 -0.6789 -0.6359
vn -0.0000 -0.6789 0.7343
vn 0.1900 -0.6789 -0.7092
vn -0.1901 -0.6789 0.7092
vn -0.0000 -0.6789 -0.7343
vn -0.3671 -0.6789 0.6359
vn -0.1900 -0.6789 -0.7092
vn -0.5192 -0.6789 0.5192
vn -0.3671 -0.6789 -0.6359
vn -0.6359 -0.6789 0.3671
vn -0.5192 -0.6789 -0.5192
vn -0.7092 -0.6789 0.1901
vn -0.6359 -0.6789 -0.3671
vn -0.7343 -0.6789 -0.0000
vn -0.7092 -0.6789 -0.1901
vn 0.7092 0.6789 -0.1901
vn 0.7343 0.6789 -0.0000
vn 0.6359 0.6789 -0.3671
vn 0.5192 0.6789 -0.5192
vn 0.3671 0.6789 -0.6359
vn 0.1900 0.6789 -0.7092
vn -0.0000 0.6789 -0.7343
vn -0.1900 0.6789 -0.7092
vn -0.3671 0.6789 -0.6359
vn -0.5192 0.6789 -0.5192
vn -0.6359 0.6789 -0.3671
vn -0.7092 0.6789 -0.1901
vn -0.7343 0.6789 -0.0000
vn -0.7092 0.6789 0.1901
vn -0.6359 0.6789 0.3671
vn -0.5192 0.6789 0.5192
vn -0.3671 0.6789 0.6359
vn -0.1901 0.6789 0.7092
vn -0.0000 0.6789 0.7343
vn 0.1901 0.6789 0.7092
vn 0.3671 0.6789 0.6359
vn 0.5192 0.6789 0.5192
vn 0.6359 0.6789 0.3671
vn 0.7092 0.6789 0.1901
# 48 vertex normals

o Non_subD
g Non_subD
usemtl wallbase
s 1
f 1//1 2//2 3//3 
f 3//3 2//2 4//4 
f 5//5 4//4 2//2 
f 4//4 5//5 6//6 
f 7//7 6//6 5//5 
f 6//6 7//7 8//8 
f 7//7 9//9 8//8 
f 8//8 9//9 10//10 
f 9//9 11//11 10//10 
f 10//10 11//11 12//12 
f 13//13 12//12 11//11 
f 12//12 13//13 14//14 
f 13//13 15//15 14//14 
f 14//14 15//15 16//16 
f 15//15 17//17 16//16 
f 16//16 17//17 18//18 
f 19//19 18//18 17//17 
f 18//18 19//19 20//20 
f 21//21 20//20 19//19 
f 20//20 21//21 22//22 
f 21//21 23//23 22//22 
f 24//24 22//22 23//23 
f 3//3 4//4 25//25 
f 25//25 26//26 3//3 
f 4//4 6//6 27//27 
f 27//27 25//25 4//4 
f 6//6 8//8 28//28 
f 28//28 27//27 6//6 
f 8//8 10//10 29//29 
f 29//29 28//28 8//8 
f 10//10 12//12 30//30 
f 30//30 29//29 10//10 
f 12//12 14//14 31//31 
f 31//31 30//30 12//12 
f 16//16 32//32 31//31 
f 31//31 14//14 16//16 
f 18//18 33//33 32//32 
f 32//32 16//16 18//18 
f 20//20 34//34 33//33 
f 33//33 18//18 20//20 
f 22//22 35//35 34//34 
f 34//34 20//20 22//22 
f 24//24 36//36 35//35 
f 35//35 22//22 24//24 
f 23//23 37//37 36//36 
f 36//36 24//24 23//23 
f 21//21 38//38 37//37 
f 37//37 23//23 21//21 
f 19//19 39//39 38//38 
f 38//38 21//21 19//19 
f 17//17 40//40 39//39 
f 39//39 19//19 17//17 
f 15//15 41//41 40//40 
f 40//40 17//17 15//15 
f 13//13 42//42 41//41 
f 41//41 15//15 13//13 
f 11//11 43//43 42//42 
f 42//42 13//13 11//11 
f 11//11 9//9 44//44 
f 44//44 43//43 11//11 
f 9//9 7//7 45//45 
f 45//45 44//44 9//9 
f 7//7 5//5 46//46 
f 46//46 45//45 7//7 
f 5//5 2//2 47//47 
f 47//47 46//46 5//5 
f 2//2 1//1 48//48 
f 48//48 47//47 2//2 
f 1//1 3//3 26//26 
f 26//26 48//48 1//1 
f 37//37 35//35 36//36 
f 35//35 37//37 34//34 
f 37//37 38//38 34//34 
f 39//39 34//34 38//38 
f 34//34 39//39 33//33 
f 40//40 33//33 39//39 
f 40//40 32//32 33//33 
f 41//41 32//32 40//40 
f 41//41 31//31 32//32 
f 42//42 31//31 41//41 
f 31//31 42//42 30//30 
f 43//43 30//30 42//42 
f 43//43 29//29 30//30 
f 44//44 29//29 43//43 
f 44//44 28//28 29//29 
f 45//45 28//28 44//44 
f 28//28 45//45 27//27 
f 46//46 27//27 45//45 
f 27//27 46//46 25//25 
f 47//47 25//25 46//46 
f 47//47 26//26 25//25 
f 48//48 26//26 47//47 
# 92 faces

