# 3ds Max Wavefront OBJ Exporter v0.97b - (c)2007 guruware
# File Created: 29.01.2019 20:59:46

mtllib box14.mtl

#
# object Non_subD
#

v  -63.3168 0.5271 70.9782
v  -62.5451 0.5271 71.7499
v  -62.9818 0.5271 71.4148
v  -63.5274 0.5271 70.4697
v  -62.0367 0.5271 71.9605
v  -63.5993 0.5271 69.9241
v  -61.4910 0.5271 72.0323
v  -63.5274 0.5271 69.3784
v  -60.9454 0.5271 71.9605
v  -63.3168 0.5271 68.8699
v  -60.4369 0.5271 71.7499
v  -62.9818 0.5271 68.4333
v  -60.0003 0.5271 71.4148
v  -62.5451 0.5271 68.0983
v  -59.6652 0.5271 70.9782
v  -62.0367 0.5271 67.8877
v  -59.4546 0.5271 70.4697
v  -61.4910 0.5271 67.8158
v  -59.3828 0.5271 69.9241
v  -59.4546 0.5271 69.3784
v  -60.9454 0.5271 67.8877
v  -60.4369 0.5271 68.0983
v  -59.6652 0.5271 68.8699
v  -60.0003 0.5271 68.4333
v  -59.3828 4.9193 69.9241
v  -59.4546 4.9193 70.4697
v  -59.6652 4.9193 70.9782
v  -60.0003 4.9193 71.4148
v  -60.4369 4.9193 71.7499
v  -60.9454 4.9193 71.9605
v  -61.4910 4.9193 72.0323
v  -62.0367 4.9193 71.9605
v  -62.5451 4.9193 71.7499
v  -62.9818 4.9193 71.4148
v  -63.3168 4.9193 70.9782
v  -63.5274 4.9193 70.4697
v  -63.5993 4.9193 69.9241
v  -63.5274 4.9193 69.3784
v  -63.3168 4.9193 68.8699
v  -62.9818 4.9193 68.4333
v  -62.5451 4.9193 68.0983
v  -62.0367 4.9193 67.8877
v  -61.4910 4.9193 67.8158
v  -60.9454 4.9193 67.8877
v  -60.4369 4.9193 68.0983
v  -60.0003 4.9193 68.4333
v  -59.6652 4.9193 68.8699
v  -59.4546 4.9193 69.3784
# 48 vertices

vn -0.6359 -0.6789 0.3671
vn -0.3671 -0.6789 0.6359
vn -0.5192 -0.6789 0.5192
vn -0.7092 -0.6789 0.1901
vn -0.1901 -0.6789 0.7092
vn -0.7343 -0.6789 -0.0000
vn 0.0000 -0.6789 0.7343
vn -0.7092 -0.6789 -0.1901
vn 0.1901 -0.6789 0.7092
vn -0.6359 -0.6789 -0.3671
vn 0.3671 -0.6789 0.6359
vn -0.5192 -0.6789 -0.5192
vn 0.5192 -0.6789 0.5192
vn -0.3671 -0.6789 -0.6359
vn 0.6359 -0.6789 0.3671
vn -0.1901 -0.6789 -0.7092
vn 0.7092 -0.6789 0.1901
vn 0.0000 -0.6789 -0.7343
vn 0.7343 -0.6789 -0.0000
vn 0.7092 -0.6789 -0.1901
vn 0.1901 -0.6789 -0.7092
vn 0.3671 -0.6789 -0.6359
vn 0.6359 -0.6789 -0.3671
vn 0.5192 -0.6789 -0.5192
vn 0.7343 0.6789 -0.0000
vn 0.7092 0.6789 0.1901
vn 0.6359 0.6789 0.3671
vn 0.5192 0.6789 0.5192
vn 0.3671 0.6789 0.6359
vn 0.1901 0.6789 0.7092
vn -0.0000 0.6789 0.7343
vn -0.1901 0.6789 0.7092
vn -0.3671 0.6789 0.6359
vn -0.5192 0.6789 0.5192
vn -0.6359 0.6789 0.3671
vn -0.7092 0.6789 0.1901
vn -0.7343 0.6789 -0.0000
vn -0.7092 0.6789 -0.1901
vn -0.6359 0.6789 -0.3671
vn -0.5192 0.6789 -0.5192
vn -0.3671 0.6789 -0.6359
vn -0.1901 0.6789 -0.7092
vn 0.0000 0.6789 -0.7343
vn 0.1901 0.6789 -0.7092
vn 0.3671 0.6789 -0.6359
vn 0.5192 0.6789 -0.5192
vn 0.6359 0.6789 -0.3671
vn 0.7092 0.6789 -0.1901
# 48 vertex normals

o Non_subD
g Non_subD
usemtl wallbase
s 1
f 1//1 2//2 3//3 
f 4//4 2//2 1//1 
f 2//2 4//4 5//5 
f 6//6 5//5 4//4 
f 6//6 7//7 5//5 
f 8//8 7//7 6//6 
f 8//8 9//9 7//7 
f 10//10 9//9 8//8 
f 9//9 10//10 11//11 
f 12//12 11//11 10//10 
f 11//11 12//12 13//13 
f 14//14 13//13 12//12 
f 13//13 14//14 15//15 
f 16//16 15//15 14//14 
f 16//16 17//17 15//15 
f 18//18 17//17 16//16 
f 17//17 18//18 19//19 
f 19//19 18//18 20//20 
f 18//18 21//21 20//20 
f 22//22 20//20 21//21 
f 22//22 23//23 20//20 
f 24//24 23//23 22//22 
f 19//19 25//25 26//26 
f 26//26 17//17 19//19 
f 17//17 26//26 27//27 
f 27//27 15//15 17//17 
f 15//15 27//27 28//28 
f 28//28 13//13 15//15 
f 13//13 28//28 29//29 
f 29//29 11//11 13//13 
f 11//11 29//29 30//30 
f 30//30 9//9 11//11 
f 9//9 30//30 31//31 
f 31//31 7//7 9//9 
f 5//5 7//7 31//31 
f 31//31 32//32 5//5 
f 2//2 5//5 32//32 
f 32//32 33//33 2//2 
f 3//3 2//2 33//33 
f 33//33 34//34 3//3 
f 1//1 3//3 34//34 
f 34//34 35//35 1//1 
f 4//4 1//1 35//35 
f 35//35 36//36 4//4 
f 6//6 4//4 36//36 
f 36//36 37//37 6//6 
f 8//8 6//6 37//37 
f 37//37 38//38 8//8 
f 10//10 8//8 38//38 
f 38//38 39//39 10//10 
f 12//12 10//10 39//39 
f 39//39 40//40 12//12 
f 14//14 12//12 40//40 
f 40//40 41//41 14//14 
f 16//16 14//14 41//41 
f 41//41 42//42 16//16 
f 18//18 16//16 42//42 
f 42//42 43//43 18//18 
f 18//18 43//43 44//44 
f 44//44 21//21 18//18 
f 21//21 44//44 45//45 
f 45//45 22//22 21//21 
f 22//22 45//45 46//46 
f 46//46 24//24 22//22 
f 24//24 46//46 47//47 
f 47//47 23//23 24//24 
f 23//23 47//47 48//48 
f 48//48 20//20 23//23 
f 20//20 48//48 25//25 
f 25//25 19//19 20//20 
f 45//45 47//47 46//46 
f 44//44 47//47 45//45 
f 44//44 48//48 47//47 
f 48//48 44//44 25//25 
f 44//44 43//43 25//25 
f 25//25 43//43 26//26 
f 43//43 42//42 26//26 
f 26//26 42//42 27//27 
f 41//41 27//27 42//42 
f 27//27 41//41 28//28 
f 40//40 28//28 41//41 
f 28//28 40//40 29//29 
f 39//39 29//29 40//40 
f 29//29 39//39 30//30 
f 39//39 38//38 30//30 
f 30//30 38//38 31//31 
f 38//38 37//37 31//31 
f 31//31 37//37 32//32 
f 36//36 32//32 37//37 
f 32//32 36//36 33//33 
f 35//35 33//33 36//36 
f 34//34 33//33 35//35 
# 92 faces

