# 3ds Max Wavefront OBJ Exporter v0.97b - (c)2007 guruware
# File Created: 29.01.2019 20:58:21

mtllib box11.mtl

#
# object Non_subD
#

v  3.2477 0.5271 71.4148
v  2.8110 0.5271 71.7499
v  3.5827 0.5271 70.9782
v  2.3026 0.5271 71.9605
v  3.7933 0.5271 70.4697
v  1.7569 0.5271 72.0323
v  3.8651 0.5271 69.9241
v  3.7933 0.5271 69.3784
v  1.2112 0.5271 71.9605
v  0.7028 0.5271 71.7499
v  3.5827 0.5271 68.8699
v  3.2477 0.5271 68.4333
v  0.2661 0.5271 71.4148
v  -0.0689 0.5271 70.9782
v  2.8110 0.5271 68.0983
v  2.3026 0.5271 67.8877
v  -0.2795 0.5271 70.4697
v  1.7569 0.5271 67.8158
v  -0.3514 0.5271 69.9241
v  1.2112 0.5271 67.8877
v  -0.2795 0.5271 69.3784
v  -0.0689 0.5271 68.8699
v  0.7028 0.5271 68.0983
v  0.2661 0.5271 68.4333
v  3.8651 4.9193 69.9241
v  3.7933 4.9193 70.4697
v  3.5827 4.9193 70.9782
v  3.2477 4.9193 71.4148
v  2.8110 4.9193 71.7499
v  2.3026 4.9193 71.9605
v  1.7569 4.9193 72.0323
v  1.2112 4.9193 71.9605
v  0.7028 4.9193 71.7499
v  0.2661 4.9193 71.4148
v  -0.0689 4.9193 70.9782
v  -0.2795 4.9193 70.4697
v  -0.3514 4.9193 69.9241
v  -0.2795 4.9193 69.3784
v  -0.0689 4.9193 68.8699
v  0.2661 4.9193 68.4333
v  0.7028 4.9193 68.0983
v  1.2112 4.9193 67.8877
v  1.7569 4.9193 67.8158
v  2.3026 4.9193 67.8877
v  2.8110 4.9193 68.0983
v  3.2477 4.9193 68.4333
v  3.5827 4.9193 68.8699
v  3.7933 4.9193 69.3784
# 48 vertices

vn -0.0000 -1.0000 -0.0000
vn 0.0000 -1.0000 0.0000
vn -0.0000 -1.0000 0.0000
vn 1.0000 0.0000 -0.0000
vn 0.9659 -0.0000 0.2588
vn 0.8660 -0.0000 0.5000
vn 0.7071 -0.0000 0.7071
vn 0.5000 -0.0000 0.8660
vn 0.2588 -0.0000 0.9659
vn -0.0000 -0.0000 1.0000
vn -0.2588 -0.0000 0.9659
vn -0.5000 -0.0000 0.8660
vn -0.7071 -0.0000 0.7071
vn -0.8660 -0.0000 0.5000
vn -0.9659 -0.0000 0.2588
vn -1.0000 0.0000 -0.0000
vn -0.9659 0.0000 -0.2588
vn -0.8660 0.0000 -0.5000
vn -0.7071 0.0000 -0.7071
vn -0.5000 0.0000 -0.8660
vn -0.2588 0.0000 -0.9659
vn -0.0000 0.0000 -1.0000
vn 0.2588 0.0000 -0.9659
vn 0.5000 0.0000 -0.8660
vn 0.7071 0.0000 -0.7071
vn 0.8660 0.0000 -0.5000
vn 0.9659 0.0000 -0.2588
vn 0.0000 1.0000 0.0000
# 28 vertex normals

o Non_subD
g Non_subD
usemtl wallbase
s 1
f 1//1 2//2 3//2 
f 4//2 3//2 2//2 
f 3//2 4//2 5//2 
f 6//3 5//2 4//2 
f 5//2 6//3 7//3 
f 7//3 6//3 8//3 
f 6//3 9//3 8//3 
f 10//2 8//3 9//3 
f 8//3 10//2 11//3 
f 11//3 10//2 12//3 
f 10//2 13//2 12//3 
f 14//3 12//3 13//2 
f 12//3 14//3 15//2 
f 15//2 14//3 16//3 
f 17//2 16//3 14//3 
f 16//3 17//2 18//3 
f 17//2 19//2 18//3 
f 18//3 19//2 20//2 
f 19//2 21//3 20//2 
f 22//2 20//2 21//3 
f 22//2 23//2 20//2 
f 24//1 23//2 22//2 
s 2
f 7//4 25//4 26//5 
f 26//5 5//5 7//4 
f 5//5 26//5 27//6 
f 27//6 3//6 5//5 
f 3//6 27//6 28//7 
f 28//7 1//7 3//6 
f 1//7 28//7 29//8 
f 29//8 2//8 1//7 
f 2//8 29//8 30//9 
f 30//9 4//9 2//8 
f 4//9 30//9 31//10 
f 31//10 6//10 4//9 
f 9//11 6//10 31//10 
f 31//10 32//11 9//11 
f 10//12 9//11 32//11 
f 32//11 33//12 10//12 
f 13//13 10//12 33//12 
f 33//12 34//13 13//13 
f 14//14 13//13 34//13 
f 34//13 35//14 14//14 
f 17//15 14//14 35//14 
f 35//14 36//15 17//15 
f 19//16 17//15 36//15 
f 36//15 37//16 19//16 
f 21//17 19//16 37//16 
f 37//16 38//17 21//17 
f 22//18 21//17 38//17 
f 38//17 39//18 22//18 
f 24//19 22//18 39//18 
f 39//18 40//19 24//19 
f 23//20 24//19 40//19 
f 40//19 41//20 23//20 
f 20//21 23//20 41//20 
f 41//20 42//21 20//21 
f 18//22 20//21 42//21 
f 42//21 43//22 18//22 
f 18//22 43//22 44//23 
f 44//23 16//23 18//22 
f 16//23 44//23 45//24 
f 45//24 15//24 16//23 
f 15//24 45//24 46//25 
f 46//25 12//25 15//24 
f 12//25 46//25 47//26 
f 47//26 11//26 12//25 
f 11//26 47//26 48//27 
f 48//27 8//27 11//26 
f 8//27 48//27 25//4 
f 25//4 7//4 8//27 
s 1
f 39//28 41//28 40//28 
f 38//28 41//28 39//28 
f 38//28 42//28 41//28 
f 42//28 38//28 43//28 
f 37//28 43//28 38//28 
f 36//28 43//28 37//28 
f 43//28 36//28 44//28 
f 35//28 44//28 36//28 
f 35//28 45//28 44//28 
f 34//28 45//28 35//28 
f 34//28 46//28 45//28 
f 46//28 34//28 47//28 
f 33//28 47//28 34//28 
f 32//28 47//28 33//28 
f 32//28 48//28 47//28 
f 48//28 32//28 25//28 
f 32//28 31//28 25//28 
f 25//28 31//28 26//28 
f 30//28 26//28 31//28 
f 26//28 30//28 27//28 
f 29//28 27//28 30//28 
f 28//28 27//28 29//28 
# 92 faces

