# 3ds Max Wavefront OBJ Exporter v0.97b - (c)2007 guruware
# File Created: 29.01.2019 20:53:07

mtllib box2.mtl

#
# object Non_subD
#

v  42.4314 0.5271 18.5377
v  41.8857 0.5271 19.4829
v  42.0964 0.5271 18.9744
v  41.8139 0.5271 20.0285
v  42.8680 0.5271 18.2027
v  43.3765 0.5271 17.9921
v  41.8857 0.5271 20.5742
v  42.0964 0.5271 21.0826
v  43.9222 0.5271 17.9202
v  42.4314 0.5271 21.5192
v  44.4678 0.5271 17.9921
v  44.9763 0.5271 18.2027
v  42.8680 0.5271 21.8543
v  45.4129 0.5271 18.5377
v  43.3765 0.5271 22.0649
v  45.7479 0.5271 18.9744
v  43.9222 0.5271 22.1368
v  44.4678 0.5271 22.0649
v  45.9586 0.5271 19.4829
v  44.9763 0.5271 21.8543
v  46.0304 0.5271 20.0285
v  45.4129 0.5271 21.5192
v  45.9586 0.5271 20.5742
v  45.7479 0.5271 21.0826
v  45.9586 4.9193 19.4829
v  46.0304 4.9193 20.0285
v  45.7479 4.9193 18.9744
v  45.4129 4.9193 18.5377
v  44.9763 4.9193 18.2027
v  44.4678 4.9193 17.9921
v  43.9222 4.9193 17.9202
v  43.3765 4.9193 17.9921
v  42.8680 4.9193 18.2027
v  42.4314 4.9193 18.5377
v  42.0964 4.9193 18.9744
v  41.8857 4.9193 19.4829
v  41.8139 4.9193 20.0285
v  41.8857 4.9193 20.5742
v  42.0964 4.9193 21.0826
v  42.4314 4.9193 21.5192
v  42.8680 4.9193 21.8543
v  43.3765 4.9193 22.0649
v  43.9222 4.9193 22.1368
v  44.4678 4.9193 22.0649
v  44.9763 4.9193 21.8543
v  45.4129 4.9193 21.5192
v  45.7479 4.9193 21.0826
v  45.9586 4.9193 20.5742
# 48 vertices

vn -0.5192 -0.6789 -0.5192
vn -0.7092 -0.6789 -0.1901
vn -0.6359 -0.6789 -0.3671
vn -0.7343 -0.6789 -0.0000
vn -0.3671 -0.6789 -0.6359
vn -0.1900 -0.6789 -0.7092
vn -0.7092 -0.6789 0.1901
vn -0.6359 -0.6789 0.3671
vn -0.0000 -0.6789 -0.7343
vn -0.5192 -0.6789 0.5192
vn 0.1900 -0.6789 -0.7092
vn 0.3671 -0.6789 -0.6359
vn -0.3671 -0.6789 0.6359
vn 0.5192 -0.6789 -0.5192
vn -0.1901 -0.6789 0.7092
vn 0.6359 -0.6789 -0.3671
vn -0.0000 -0.6789 0.7343
vn 0.1901 -0.6789 0.7092
vn 0.7092 -0.6789 -0.1901
vn 0.3671 -0.6789 0.6359
vn 0.7343 -0.6789 -0.0000
vn 0.5192 -0.6789 0.5192
vn 0.7092 -0.6789 0.1901
vn 0.6359 -0.6789 0.3671
vn 0.7092 0.6789 -0.1901
vn 0.7343 0.6789 -0.0000
vn 0.6359 0.6789 -0.3671
vn 0.5192 0.6789 -0.5192
vn 0.3671 0.6789 -0.6359
vn 0.1900 0.6789 -0.7092
vn 0.0000 0.6789 -0.7343
vn -0.1900 0.6789 -0.7092
vn -0.3671 0.6789 -0.6359
vn -0.5192 0.6789 -0.5192
vn -0.6359 0.6789 -0.3671
vn -0.7092 0.6789 -0.1901
vn -0.7343 0.6789 -0.0000
vn -0.7092 0.6789 0.1901
vn -0.6359 0.6789 0.3671
vn -0.5192 0.6789 0.5192
vn -0.3671 0.6789 0.6359
vn -0.1901 0.6789 0.7092
vn 0.0000 0.6789 0.7343
vn 0.1901 0.6789 0.7092
vn 0.3671 0.6789 0.6359
vn 0.5192 0.6789 0.5192
vn 0.6359 0.6789 0.3671
vn 0.7092 0.6789 0.1901
# 48 vertex normals

o Non_subD
g Non_subD
usemtl wallbase
s 1
f 1//1 2//2 3//3 
f 2//2 1//1 4//4 
f 5//5 4//4 1//1 
f 6//6 4//4 5//5 
f 6//6 7//7 4//4 
f 7//7 6//6 8//8 
f 9//9 8//8 6//6 
f 8//8 9//9 10//10 
f 11//11 10//10 9//9 
f 12//12 10//10 11//11 
f 12//12 13//13 10//10 
f 14//14 13//13 12//12 
f 14//14 15//15 13//13 
f 16//16 15//15 14//14 
f 16//16 17//17 15//15 
f 17//17 16//16 18//18 
f 19//19 18//18 16//16 
f 18//18 19//19 20//20 
f 21//21 20//20 19//19 
f 20//20 21//21 22//22 
f 23//23 22//22 21//21 
f 24//24 22//22 23//23 
f 21//21 19//19 25//25 
f 25//25 26//26 21//21 
f 19//19 16//16 27//27 
f 27//27 25//25 19//19 
f 16//16 14//14 28//28 
f 28//28 27//27 16//16 
f 14//14 12//12 29//29 
f 29//29 28//28 14//14 
f 12//12 11//11 30//30 
f 30//30 29//29 12//12 
f 11//11 9//9 31//31 
f 31//31 30//30 11//11 
f 6//6 32//32 31//31 
f 31//31 9//9 6//6 
f 5//5 33//33 32//32 
f 32//32 6//6 5//5 
f 1//1 34//34 33//33 
f 33//33 5//5 1//1 
f 3//3 35//35 34//34 
f 34//34 1//1 3//3 
f 2//2 36//36 35//35 
f 35//35 3//3 2//2 
f 4//4 37//37 36//36 
f 36//36 2//2 4//4 
f 7//7 38//38 37//37 
f 37//37 4//4 7//7 
f 8//8 39//39 38//38 
f 38//38 7//7 8//8 
f 10//10 40//40 39//39 
f 39//39 8//8 10//10 
f 13//13 41//41 40//40 
f 40//40 10//10 13//13 
f 15//15 42//42 41//41 
f 41//41 13//13 15//15 
f 17//17 43//43 42//42 
f 42//42 15//15 17//17 
f 17//17 18//18 44//44 
f 44//44 43//43 17//17 
f 18//18 20//20 45//45 
f 45//45 44//44 18//18 
f 20//20 22//22 46//46 
f 46//46 45//45 20//20 
f 22//22 24//24 47//47 
f 47//47 46//46 22//22 
f 24//24 23//23 48//48 
f 48//48 47//47 24//24 
f 23//23 21//21 26//26 
f 26//26 48//48 23//23 
f 35//35 36//36 34//34 
f 37//37 34//34 36//36 
f 37//37 33//33 34//34 
f 38//38 33//33 37//37 
f 33//33 38//38 32//32 
f 39//39 32//32 38//38 
f 32//32 39//39 31//31 
f 40//40 31//31 39//39 
f 40//40 30//30 31//31 
f 41//41 30//30 40//40 
f 41//41 29//29 30//30 
f 42//42 29//29 41//41 
f 42//42 28//28 29//29 
f 43//43 28//28 42//42 
f 28//28 43//43 27//27 
f 44//44 27//27 43//43 
f 27//27 44//44 25//25 
f 45//45 25//25 44//44 
f 25//25 45//45 26//26 
f 46//46 26//26 45//45 
f 26//26 46//46 48//48 
f 47//47 48//48 46//46 
# 92 faces

