# 3ds Max Wavefront OBJ Exporter v0.97b - (c)2007 guruware
# File Created: 29.01.2019 20:56:15

mtllib box6.mtl

#
# object Non_subD
#

v  -38.5826 0.5271 18.9744
v  -39.3543 0.5271 18.2027
v  -38.9176 0.5271 18.5377
v  -38.3720 0.5271 19.4829
v  -39.8627 0.5271 17.9921
v  -38.3001 0.5271 20.0285
v  -40.4084 0.5271 17.9202
v  -38.3720 0.5271 20.5742
v  -40.9541 0.5271 17.9921
v  -38.5826 0.5271 21.0826
v  -41.4625 0.5271 18.2027
v  -41.8991 0.5271 18.5377
v  -38.9176 0.5271 21.5192
v  -39.3543 0.5271 21.8543
v  -42.2342 0.5271 18.9744
v  -42.4448 0.5271 19.4829
v  -39.8627 0.5271 22.0649
v  -40.4084 0.5271 22.1368
v  -42.5166 0.5271 20.0285
v  -42.4448 0.5271 20.5742
v  -40.9541 0.5271 22.0649
v  -41.4625 0.5271 21.8543
v  -42.2342 0.5271 21.0826
v  -41.8991 0.5271 21.5192
v  -38.3720 4.9193 19.4829
v  -38.3001 4.9193 20.0285
v  -38.5826 4.9193 18.9744
v  -38.9176 4.9193 18.5377
v  -39.3543 4.9193 18.2027
v  -39.8627 4.9193 17.9921
v  -40.4084 4.9193 17.9202
v  -40.9541 4.9193 17.9921
v  -41.4625 4.9193 18.2027
v  -41.8991 4.9193 18.5377
v  -42.2342 4.9193 18.9744
v  -42.4448 4.9193 19.4829
v  -42.5166 4.9193 20.0285
v  -42.4448 4.9193 20.5742
v  -42.2342 4.9193 21.0826
v  -41.8991 4.9193 21.5192
v  -41.4625 4.9193 21.8543
v  -40.9541 4.9193 22.0649
v  -40.4084 4.9193 22.1368
v  -39.8627 4.9193 22.0649
v  -39.3543 4.9193 21.8543
v  -38.9176 4.9193 21.5192
v  -38.5826 4.9193 21.0826
v  -38.3720 4.9193 20.5742
# 48 vertices

vn 0.6359 -0.6789 -0.3671
vn 0.3671 -0.6789 -0.6359
vn 0.5192 -0.6789 -0.5192
vn 0.7092 -0.6789 -0.1901
vn 0.1900 -0.6789 -0.7092
vn 0.7343 -0.6789 -0.0000
vn -0.0000 -0.6789 -0.7343
vn 0.7092 -0.6789 0.1901
vn -0.1900 -0.6789 -0.7092
vn 0.6359 -0.6789 0.3671
vn -0.3671 -0.6789 -0.6359
vn -0.5192 -0.6789 -0.5192
vn 0.5192 -0.6789 0.5192
vn 0.3671 -0.6789 0.6359
vn -0.6359 -0.6789 -0.3671
vn -0.7092 -0.6789 -0.1901
vn 0.1901 -0.6789 0.7092
vn -0.0000 -0.6789 0.7343
vn -0.7343 -0.6789 -0.0000
vn -0.7092 -0.6789 0.1901
vn -0.1901 -0.6789 0.7092
vn -0.3671 -0.6789 0.6359
vn -0.6359 -0.6789 0.3671
vn -0.5192 -0.6789 0.5192
vn 0.7092 0.6789 -0.1901
vn 0.7343 0.6789 -0.0000
vn 0.6359 0.6789 -0.3671
vn 0.5192 0.6789 -0.5192
vn 0.3671 0.6789 -0.6359
vn 0.1900 0.6789 -0.7092
vn -0.0000 0.6789 -0.7343
vn -0.1900 0.6789 -0.7092
vn -0.3671 0.6789 -0.6359
vn -0.5192 0.6789 -0.5192
vn -0.6359 0.6789 -0.3671
vn -0.7092 0.6789 -0.1901
vn -0.7343 0.6789 -0.0000
vn -0.7092 0.6789 0.1901
vn -0.6359 0.6789 0.3671
vn -0.5192 0.6789 0.5192
vn -0.3671 0.6789 0.6359
vn -0.1901 0.6789 0.7092
vn -0.0000 0.6789 0.7343
vn 0.1901 0.6789 0.7092
vn 0.3671 0.6789 0.6359
vn 0.5192 0.6789 0.5192
vn 0.6359 0.6789 0.3671
vn 0.7092 0.6789 0.1901
# 48 vertex normals

o Non_subD
g Non_subD
usemtl wallbase
s 1
f 1//1 2//2 3//3 
f 4//4 2//2 1//1 
f 4//4 5//5 2//2 
f 6//6 5//5 4//4 
f 5//5 6//6 7//7 
f 8//8 7//7 6//6 
f 7//7 8//8 9//9 
f 10//10 9//9 8//8 
f 9//9 10//10 11//11 
f 11//11 10//10 12//12 
f 10//10 13//13 12//12 
f 14//14 12//12 13//13 
f 12//12 14//14 15//15 
f 15//15 14//14 16//16 
f 14//14 17//17 16//16 
f 18//18 16//16 17//17 
f 16//16 18//18 19//19 
f 19//19 18//18 20//20 
f 18//18 21//21 20//20 
f 22//22 20//20 21//21 
f 22//22 23//23 20//20 
f 24//24 23//23 22//22 
f 6//6 4//4 25//25 
f 25//25 26//26 6//6 
f 4//4 1//1 27//27 
f 27//27 25//25 4//4 
f 1//1 3//3 28//28 
f 28//28 27//27 1//1 
f 3//3 2//2 29//29 
f 29//29 28//28 3//3 
f 2//2 5//5 30//30 
f 30//30 29//29 2//2 
f 5//5 7//7 31//31 
f 31//31 30//30 5//5 
f 9//9 32//32 31//31 
f 31//31 7//7 9//9 
f 11//11 33//33 32//32 
f 32//32 9//9 11//11 
f 12//12 34//34 33//33 
f 33//33 11//11 12//12 
f 15//15 35//35 34//34 
f 34//34 12//12 15//15 
f 16//16 36//36 35//35 
f 35//35 15//15 16//16 
f 19//19 37//37 36//36 
f 36//36 16//16 19//19 
f 20//20 38//38 37//37 
f 37//37 19//19 20//20 
f 23//23 39//39 38//38 
f 38//38 20//20 23//23 
f 24//24 40//40 39//39 
f 39//39 23//23 24//24 
f 22//22 41//41 40//40 
f 40//40 24//24 22//22 
f 21//21 42//42 41//41 
f 41//41 22//22 21//21 
f 18//18 43//43 42//42 
f 42//42 21//21 18//18 
f 18//18 17//17 44//44 
f 44//44 43//43 18//18 
f 17//17 14//14 45//45 
f 45//45 44//44 17//17 
f 14//14 13//13 46//46 
f 46//46 45//45 14//14 
f 13//13 10//10 47//47 
f 47//47 46//46 13//13 
f 10//10 8//8 48//48 
f 48//48 47//47 10//10 
f 8//8 6//6 26//26 
f 26//26 48//48 8//8 
f 35//35 33//33 34//34 
f 36//36 33//33 35//35 
f 33//33 36//36 32//32 
f 37//37 32//32 36//36 
f 37//37 31//31 32//32 
f 38//38 31//31 37//37 
f 31//31 38//38 30//30 
f 39//39 30//30 38//38 
f 30//30 39//39 29//29 
f 40//40 29//29 39//39 
f 29//29 40//40 28//28 
f 41//41 28//28 40//40 
f 28//28 41//41 27//27 
f 42//42 27//27 41//41 
f 27//27 42//42 25//25 
f 43//43 25//25 42//42 
f 25//25 43//43 26//26 
f 44//44 26//26 43//43 
f 26//26 44//44 48//48 
f 48//48 44//44 47//47 
f 44//44 45//45 47//47 
f 46//46 47//47 45//45 
# 92 faces

